<svg width="62" height="81" viewBox="0 0 62 81" fill="none" xmlns="http://www.w3.org/2000/svg">
    <g filter="url(#filter0_d_125_409)">
        <path fill-rule="evenodd" clip-rule="evenodd" d="M31 35.81C23.9252 35.81 18.19 30.0748 18.19 23C18.19 15.9252 23.9252 10.19 31 10.19C38.0748 10.19 43.81 15.9252 43.81 23C43.81 30.0748 38.0748 35.81 31 35.81ZM10 23C10 11.402 19.402 2 31 2C42.598 2 52 11.402 52 23C52 28.0707 50.2028 32.7217 47.2106 36.3507C41.8871 42.8071 35.095 49.6319 35.095 58C35.095 60.2616 33.2616 62.095 31 62.095C28.7384 62.095 26.905 60.2616 26.905 58C26.905 49.6319 20.1129 42.8071 14.7894 36.3507C11.7972 32.7217 10 28.0707 10 23Z" fill="#33BD8A"/>
        <rect x="24" y="16" width="14" height="14" rx="7" fill="#33BD8A"/>
    </g>
    <defs>
        <filter id="filter0_d_125_409" x="0" y="0" width="62" height="80.095" filterUnits="userSpaceOnUse" color-interpolation-filters="sRGB">
            <feFlood flood-opacity="0" result="BackgroundImageFix"/>
            <feColorMatrix in="SourceAlpha" type="matrix" values="0 0 0 0 0 0 0 0 0 0 0 0 0 0 0 0 0 0 127 0" result="hardAlpha"/>
            <feOffset dy="8"/>
            <feGaussianBlur stdDeviation="5"/>
            <feColorMatrix type="matrix" values="0 0 0 0 0.2 0 0 0 0 0.741176 0 0 0 0 0.541176 0 0 0 0.2 0"/>
            <feBlend mode="normal" in2="BackgroundImageFix" result="effect1_dropShadow_125_409"/>
            <feBlend mode="normal" in="SourceGraphic" in2="effect1_dropShadow_125_409" result="shape"/>
        </filter>
    </defs>
</svg>
