<svg width="44" height="44" viewBox="0 0 44 44" fill="none" xmlns="http://www.w3.org/2000/svg">
<rect x="8" y="8" width="28" height="28" rx="14" fill="#E0E9F0"/>
<path fill-rule="evenodd" clip-rule="evenodd" d="M22 23.66C19.9786 23.66 18.34 22.0214 18.34 20C18.34 17.9786 19.9786 16.34 22 16.34C24.0214 16.34 25.66 17.9786 25.66 20C25.66 22.0214 24.0214 23.66 22 23.66ZM16 20C16 16.6863 18.6863 14 22 14C25.3137 14 28 16.6863 28 20C28 21.4488 27.4865 22.7776 26.6316 23.8145C25.1106 25.6592 23.17 27.6091 23.17 30C23.17 30.6462 22.6462 31.17 22 31.17C21.3538 31.17 20.83 30.6462 20.83 30C20.83 27.6091 18.8894 25.6592 17.3684 23.8145C16.5135 22.7776 16 21.4488 16 20Z" fill="#9EABB3"/>
<rect x="20" y="18" width="4" height="4" rx="2" fill="#9EABB3"/>
</svg>
