<svg width="24" height="24" viewBox="0 0 24 24" fill="none" xmlns="http://www.w3.org/2000/svg">
<rect x="4.36353" y="4.36365" width="15.2727" height="15.2727" rx="7.63636" fill="#E0E9F0"/>
<path d="M11.248 13.9084H12.2637V13.8409C12.2779 13.0241 12.5123 12.6584 13.1159 12.2855C13.7516 11.902 14.1422 11.3622 14.1422 10.5632C14.1422 9.40909 13.2686 8.62784 11.9654 8.62784C10.7686 8.62784 9.80984 9.32741 9.76367 10.6058H10.8432C10.8858 9.85298 11.4221 9.52273 11.9654 9.52273C12.5691 9.52273 13.0591 9.92401 13.0591 10.5526C13.0591 11.0817 12.7289 11.4545 12.3063 11.7173C11.6458 12.1222 11.2551 12.5234 11.248 13.8409V13.9084ZM11.7843 16.0675C12.1713 16.0675 12.4945 15.7514 12.4945 15.3572C12.4945 14.9702 12.1713 14.6506 11.7843 14.6506C11.3936 14.6506 11.074 14.9702 11.074 15.3572C11.074 15.7514 11.3936 16.0675 11.7843 16.0675Z" fill="#9EABB3"/>
</svg>
