<svg width="44" height="44" viewBox="0 0 44 44" fill="none" xmlns="http://www.w3.org/2000/svg">
<rect x="8" y="8" width="28" height="28" rx="14" fill="#E0E9F0"/>
<path fill-rule="evenodd" clip-rule="evenodd" d="M20.8333 24.3333C18.9003 24.3333 17.3333 22.7663 17.3333 20.8333C17.3333 18.9003 18.9003 17.3333 20.8333 17.3333C22.7663 17.3333 24.3333 18.9003 24.3333 20.8333C24.3333 22.7663 22.7663 24.3333 20.8333 24.3333ZM15 20.8333C15 17.6117 17.6117 15 20.8333 15C24.055 15 26.6667 17.6117 26.6667 20.8333C26.6667 22.0223 26.311 23.1281 25.7002 24.0503L28.6583 27.0084C29.1139 27.464 29.1139 28.2027 28.6583 28.6583C28.2027 29.1139 27.464 29.1139 27.0084 28.6583L24.0503 25.7002C23.1281 26.311 22.0223 26.6667 20.8333 26.6667C17.6117 26.6667 15 24.055 15 20.8333Z" fill="#9EABB3"/>
</svg>
