<svg width="25" height="20" viewBox="0 0 25 20" fill="none" xmlns="http://www.w3.org/2000/svg">
<path d="M13.1168 8.36561C13.1168 9.13379 12.6613 9.57573 11.8582 9.57573H10.8036V7.15629H11.8629C12.6613 7.15629 13.1168 7.59341 13.1168 8.36561ZM15.1784 11.1603C15.1784 11.5307 15.4909 11.7718 15.9815 11.7718C16.6065 11.7718 17.0752 11.366 17.0752 10.7939V10.45L16.055 10.5167C15.4776 10.5568 15.1784 10.7754 15.1784 11.1595V11.1603ZM25 2.14303V17.857C24.9998 18.4253 24.7802 18.9702 24.3895 19.3721C23.9988 19.7739 23.469 19.9998 22.9165 20H2.08353C1.53101 19.9998 1.00117 19.7739 0.61048 19.3721C0.219788 18.9702 0.000207054 18.4253 0 17.857V2.14303C0.000207054 1.57473 0.219788 1.02976 0.61048 0.627914C1.00117 0.226064 1.53101 0.000212967 2.08353 0H22.9165C23.469 0.000212967 23.9988 0.226064 24.3895 0.627914C24.7802 1.02976 24.9998 1.57473 25 2.14303ZM5.54748 7.41904C5.91232 7.45038 6.27637 7.23182 6.50683 6.9546C6.7326 6.66854 6.88025 6.28526 6.84119 5.89634C6.52011 5.91 6.1209 6.11491 5.89044 6.40096C5.68185 6.64685 5.50452 7.04379 5.54748 7.41904ZM8.17787 10.7449C8.16928 10.736 7.32712 10.4058 7.31852 9.40538C7.30993 8.57051 7.98256 8.16874 8.01303 8.14624C7.63101 7.56609 7.04041 7.50342 6.83651 7.48976C6.30683 7.45842 5.85529 7.79751 5.60373 7.79751C5.34749 7.79751 4.96547 7.50261 4.54908 7.51225C4.27722 7.51968 4.012 7.60022 3.77982 7.74585C3.54763 7.89148 3.35658 8.09712 3.22568 8.34231C2.65695 9.35155 3.07803 10.8421 3.62957 11.6633C3.89832 12.0691 4.22409 12.5159 4.64986 12.4982C5.05297 12.4805 5.2139 12.2306 5.69982 12.2306C6.19043 12.2306 6.32949 12.4982 6.75448 12.4942C7.19743 12.4853 7.47086 12.0884 7.74429 11.6818C8.0435 11.2174 8.16928 10.7714 8.17865 10.7441L8.17787 10.7449ZM14.0542 8.36159C14.0542 7.17397 13.2512 6.36159 12.1051 6.36159H9.88329V12.4508H10.8036V10.3704H12.0754C13.2387 10.3704 14.0542 9.54922 14.0542 8.36159ZM17.9604 9.41904C17.9604 8.53998 17.2745 7.97268 16.2245 7.97268C15.248 7.97268 14.5277 8.54881 14.5011 9.33387H15.33C15.3995 8.95862 15.7378 8.71354 16.1979 8.71354C16.762 8.71354 17.0745 8.98112 17.0745 9.48172V9.81679L15.9284 9.88831C14.8605 9.955 14.2839 10.4066 14.2839 11.1876C14.2839 11.9775 14.8784 12.4998 15.7331 12.4998C16.3104 12.4998 16.844 12.2009 17.087 11.7228H17.1042V12.4548H17.9549V9.41904H17.9604ZM22.3962 8.03053H21.4634L20.383 11.6288H20.3658L19.2853 8.03053H18.3174L19.8752 12.4636L19.7931 12.7312C19.6541 13.1868 19.4244 13.3652 19.0166 13.3652C18.9266 13.3635 18.8368 13.3589 18.7471 13.3515V14.0836C18.7994 14.1012 19.0291 14.1061 19.0986 14.1061C19.997 14.1061 20.4181 13.7533 20.7869 12.6862L22.3962 8.03053Z" fill="#444444"/>
</svg>
